<svg xmlns="http://www.w3.org/2000/svg" fill="none" viewBox="0 0 133 40" height="40" width="133">
<path fill="#0B0B0B" d="M29.1247 0C29.3364 0 29.4316 0.0210552 29.5534 0.100011C29.6433 0.157912 29.7545 0.294769 29.9344 0.647439L29.9821 25.3027L30.0826 25.687C30.1409 25.8923 30.2308 26.166 30.2837 26.2871C30.3366 26.4134 30.4531 26.6345 30.5431 26.7819C30.6383 26.9292 30.7865 27.1187 30.8818 27.2082C30.977 27.2977 31.1464 27.4188 31.2576 27.4819C31.3687 27.5504 31.5857 27.6398 31.7339 27.6925C31.8821 27.7398 32.1943 27.803 32.4272 27.8293C32.7394 27.8662 32.9882 27.8662 33.3481 27.8346C33.6233 27.8083 34.0784 27.7346 34.3589 27.6714C34.6447 27.6083 35.0681 27.4925 35.3063 27.424C35.6291 27.3188 35.7773 27.2977 35.9361 27.3188C36.0472 27.3345 36.206 27.3872 36.2907 27.4451C36.3753 27.4977 36.4918 27.6135 36.55 27.6977C36.6082 27.7872 36.7299 28.1557 36.8305 28.5505C36.9258 28.9295 37.0211 29.3716 37.0369 29.5348C37.0634 29.7874 37.0528 29.8506 36.9575 30.019C36.8993 30.1296 36.767 30.277 36.6506 30.3559C36.5394 30.4401 36.1795 30.5875 35.8197 30.7086C35.4756 30.8244 35.0205 30.956 34.8088 31.0086C34.6024 31.0613 34.1843 31.1455 33.8879 31.1929C33.5227 31.256 33.0623 31.2929 32.4484 31.3139C31.8926 31.3244 31.3793 31.3139 31.1041 31.2823C30.8553 31.256 30.4584 31.1929 30.2255 31.1402C29.9926 31.0928 29.5851 30.9823 29.3258 30.8928C29.0665 30.8086 28.6907 30.656 28.4949 30.5559C28.2991 30.4559 28.0133 30.2928 27.8651 30.1822C27.7169 30.0769 27.4629 29.8559 27.3041 29.6822C27.1453 29.5137 26.9336 29.2558 26.833 29.1084C26.7378 28.961 26.5843 28.6768 26.489 28.482C26.3991 28.2873 26.272 27.9504 26.2138 27.7451C26.1503 27.5346 26.0709 27.1714 26.0286 26.9398C25.9915 26.7029 25.9386 26.2292 25.9121 25.887C25.8857 25.4817 25.8645 21.1602 25.8645 13.6804C25.8645 3.83726 25.8751 2.08444 25.928 1.97916C25.9651 1.91073 26.1291 1.7265 26.2985 1.56333C26.4679 1.40015 26.759 1.15802 26.9442 1.02116C27.1294 0.884307 27.4417 0.679022 27.6428 0.56322C27.8386 0.452681 28.1932 0.278978 28.4261 0.184231C28.7542 0.0473739 28.9183 0.00526369 29.1247 0ZM45.4837 1.41594C45.5842 1.43173 45.706 1.46332 45.7536 1.48963C45.8012 1.51069 45.9018 1.58438 45.9706 1.64755C46.0394 1.71598 46.1241 1.86862 46.1611 1.98969C46.2141 2.17918 46.2247 2.79504 46.2247 9.57472L48.7756 9.58525C50.9773 9.59578 51.3478 9.6063 51.4854 9.66947C51.57 9.70632 51.6918 9.80632 51.8664 10.0485V11.1749C51.8664 12.2487 51.8611 12.3066 51.7712 12.4277C51.7182 12.4961 51.623 12.5908 51.5541 12.6435C51.4377 12.7277 51.3531 12.733 48.8286 12.7435C46.3834 12.754 46.2247 12.7593 46.2247 12.833C46.2247 12.8751 46.1929 15.5385 46.1611 18.7494C46.1135 22.813 46.1082 24.7237 46.14 25.0343C46.1664 25.2817 46.214 25.6133 46.2511 25.7765C46.2881 25.9344 46.3623 26.1765 46.4152 26.3134C46.4681 26.445 46.5739 26.6608 46.6533 26.7819C46.7327 26.9029 46.9021 27.1029 47.0291 27.2187C47.1561 27.3345 47.3837 27.4925 47.5424 27.5661C47.6959 27.6398 47.9711 27.7293 48.1564 27.7714C48.3416 27.8083 48.7068 27.8399 48.9661 27.8399C49.2466 27.8399 49.6753 27.803 50.0246 27.7399C50.3422 27.6872 50.8767 27.5661 51.2048 27.4714C51.533 27.3767 51.8717 27.2977 51.967 27.2977C52.0622 27.2977 52.2157 27.3345 52.3162 27.3767C52.4115 27.424 52.5491 27.5293 52.6126 27.6135C52.6814 27.6977 52.7661 27.8556 52.8032 27.9662C52.8402 28.0767 52.9196 28.3715 52.9831 28.6136C53.0466 28.861 53.1207 29.1979 53.1419 29.3663C53.179 29.5716 53.1789 29.7243 53.1472 29.8453C53.1207 29.9454 53.0413 30.0927 52.9725 30.1717C52.9037 30.2506 52.7238 30.3822 52.5809 30.4559C52.4327 30.5349 52.0728 30.6823 51.7765 30.777C51.4801 30.877 51.0037 31.0086 50.7179 31.0718C50.4374 31.135 49.9294 31.2192 49.596 31.2613C49.1355 31.3139 48.7597 31.3297 48.0241 31.3087C47.4154 31.2981 46.9073 31.2613 46.6533 31.2139C46.431 31.1718 46.0553 31.0876 45.8224 31.0244C45.5843 30.9613 45.2244 30.8402 45.0127 30.756C44.801 30.6717 44.4728 30.5033 44.277 30.3928C44.0812 30.277 43.7795 30.0506 43.6049 29.8927C43.4302 29.7295 43.1974 29.4821 43.0862 29.3295C42.9751 29.1821 42.7951 28.9031 42.6893 28.7031C42.5834 28.5084 42.4458 28.1978 42.3823 28.0136C42.3188 27.8293 42.2288 27.4977 42.1812 27.2714C42.1336 27.0503 42.0754 26.7082 42.0436 26.5134C42.0171 26.3186 41.9854 25.5291 41.9695 24.7658C41.9536 23.95 41.9854 21.3971 42.0383 18.5704C42.0912 15.9228 42.1389 13.5541 42.16 12.8435H40.8105C39.4979 12.8435 39.4556 12.8382 39.2597 12.7435C39.138 12.6803 39.0216 12.5803 38.9687 12.4856C38.884 12.3434 38.8734 12.2329 38.8628 11.3433C38.8522 10.7012 38.8681 10.2906 38.8999 10.159C38.9316 10.0485 38.9951 9.89581 39.048 9.82738C39.101 9.75369 39.228 9.65894 39.3286 9.61157C39.4873 9.54314 39.6567 9.53261 42.2024 9.53261L42.2341 8.60093C42.2553 8.09035 42.2818 6.89022 42.2923 5.92696C42.3082 4.96896 42.3294 3.97411 42.3664 3.24246L42.7369 2.87926C42.938 2.6845 43.2926 2.395 43.5308 2.24235C43.7637 2.08444 44.1288 1.87915 44.3405 1.77914C44.547 1.67913 44.8539 1.5528 45.0127 1.4949C45.2244 1.41594 45.3567 1.39489 45.4837 1.41594ZM8.47347 8.34301C9.26204 8.35354 9.98711 8.39038 10.3629 8.43249C10.6963 8.46934 11.2097 8.54303 11.5061 8.59567C11.8024 8.64831 12.1782 8.71673 12.337 8.75358C12.5011 8.79043 12.9562 8.91149 13.3478 9.01677C13.7448 9.12204 14.2793 9.27995 14.5387 9.36944C14.798 9.45366 15.1949 9.60104 15.4172 9.69579C15.6395 9.78527 15.9412 9.94318 16.0893 10.0432C16.2375 10.1432 16.4228 10.3169 16.4969 10.4274C16.5763 10.538 16.6609 10.7327 16.6874 10.8643C16.7297 11.038 16.7403 13.0277 16.7403 18.7389C16.7403 24.0289 16.7562 26.4608 16.7933 26.645C16.8197 26.7924 16.8885 26.9977 16.9414 27.0924C17.0049 27.2029 17.1161 27.3082 17.2219 27.3609C17.3648 27.4398 17.476 27.4503 17.8888 27.4451C18.2434 27.4398 18.5874 27.3977 19.1008 27.2977C19.593 27.1977 19.884 27.1608 20.011 27.1766C20.1169 27.1924 20.281 27.2451 20.371 27.2924C20.4662 27.3345 20.5985 27.4398 20.6673 27.524C20.7414 27.6083 20.8261 27.7451 20.8631 27.8346C20.8949 27.9188 20.9955 28.2715 21.0854 28.6136C21.1701 28.961 21.2548 29.3716 21.2707 29.5348C21.2918 29.7453 21.2759 29.8769 21.2283 30.0243C21.1807 30.1559 21.0748 30.298 20.9372 30.4191C20.8155 30.5296 20.5668 30.6875 20.3815 30.7718C20.1963 30.8612 19.8735 30.9876 19.6618 31.056C19.4554 31.1244 19.069 31.2192 18.8097 31.2718C18.5503 31.3192 18.127 31.3823 17.8676 31.4087C17.5395 31.4455 17.2114 31.4455 16.8091 31.4139C16.4916 31.3876 16.0629 31.3297 15.8671 31.2823C15.6713 31.235 15.3643 31.1455 15.1949 31.0771C15.0202 31.0139 14.8086 30.9191 14.7186 30.8665C14.6339 30.8139 14.4434 30.677 14.3005 30.5665C14.1523 30.4507 13.9247 30.2191 13.7871 30.0506C13.6548 29.8769 13.4802 29.5979 13.4008 29.4348C13.3214 29.2716 13.242 29.14 13.2155 29.1505C13.1891 29.1558 12.9986 29.2926 12.7869 29.4506C12.5805 29.6085 12.2258 29.8506 12.0036 29.9875C11.7813 30.1243 11.3949 30.3401 11.1462 30.4612C10.9027 30.5823 10.4952 30.7612 10.2464 30.8507C10.003 30.9455 9.57431 31.0771 9.30439 31.1455C9.03447 31.2139 8.56876 31.3034 8.27238 31.3455C7.91778 31.3981 7.44675 31.4245 6.90162 31.4245C6.44118 31.4245 5.88546 31.3981 5.66317 31.3718C5.44089 31.3402 5.07041 31.2771 4.83225 31.2297C4.59938 31.1823 4.22366 31.0823 4.00137 31.0034C3.77909 30.9297 3.39273 30.7665 3.14927 30.6402C2.90053 30.5138 2.54594 30.2928 2.3607 30.1559C2.17546 30.019 1.88439 29.7506 1.70974 29.5664C1.53508 29.3769 1.28633 29.0505 1.14873 28.8294C1.01113 28.6136 0.82587 28.2557 0.735897 28.0346C0.645925 27.8135 0.529516 27.4714 0.476592 27.2714C0.423667 27.0766 0.349549 26.6924 0.312501 26.4239C0.254284 26.0344 0.243711 25.708 0.259588 24.8553C0.280758 23.9921 0.301897 23.6973 0.381283 23.3341C0.434208 23.092 0.540094 22.713 0.608897 22.4972C0.682991 22.2814 0.815276 21.9603 0.905246 21.7813C0.995219 21.6023 1.16459 21.3181 1.27573 21.1444C1.39217 20.9707 1.66737 20.6496 1.88965 20.4285C2.11193 20.2022 2.46652 19.9074 2.67822 19.7706C2.88463 19.6284 3.27099 19.4179 3.53032 19.2916C3.78965 19.1705 4.19187 19.0073 4.43003 18.9284C4.6629 18.8494 5.05985 18.7389 5.3033 18.681C5.55205 18.6283 5.95426 18.5441 6.203 18.5073C6.45175 18.4704 6.83283 18.4178 7.06041 18.3915C7.28269 18.3651 8.05007 18.3283 8.76456 18.302C9.48433 18.2809 10.6805 18.2441 12.7869 18.1914V12.3961L12.4376 12.2171C12.247 12.1224 11.8765 11.9697 11.6172 11.8855C11.3579 11.8013 10.8974 11.6802 10.5852 11.617C10.2782 11.5539 9.81246 11.4802 9.55313 11.4539C9.2938 11.4223 8.59522 11.396 8.00246 11.396C7.24035 11.396 6.76402 11.417 6.38296 11.4697C6.08659 11.5118 5.44092 11.617 4.94343 11.7013C4.45123 11.7855 3.91138 11.8592 3.74202 11.8592C3.57795 11.8592 3.37682 11.8329 3.29214 11.8013C3.21276 11.7644 3.08044 11.6592 3.00105 11.5644C2.8952 11.4381 2.79465 11.2117 2.65705 10.7854C2.54591 10.4538 2.44535 10.0906 2.42418 9.98003C2.4083 9.83791 2.4189 9.71684 2.46653 9.58525C2.51416 9.47471 2.61999 9.33259 2.73114 9.23784C2.83699 9.15363 3.03284 9.03782 3.17045 8.99045C3.30805 8.93781 3.76318 8.83254 4.18129 8.74832C4.59939 8.6641 5.23981 8.55356 5.5997 8.50092C5.95429 8.45355 6.46233 8.39038 6.72166 8.36933C6.98099 8.34827 7.76957 8.33775 8.47347 8.34301ZM7.44146 21.2286C7.1292 21.2707 6.68462 21.3549 6.45175 21.4181C6.21888 21.476 5.88018 21.5971 5.71083 21.6813C5.53618 21.7655 5.28742 21.934 5.14982 22.0498C5.01751 22.1656 4.82699 22.3814 4.73173 22.5288C4.63646 22.6761 4.50942 22.9499 4.4512 23.1341C4.38769 23.3183 4.30832 23.6815 4.26598 23.9394C4.21306 24.2816 4.20245 24.6027 4.21833 25.1027C4.22891 25.5238 4.26596 25.9291 4.31359 26.1344C4.35593 26.3186 4.47237 26.6345 4.56764 26.8398C4.68936 27.0924 4.82168 27.2819 4.99103 27.4503C5.14452 27.6083 5.3562 27.7556 5.5626 27.8556C5.74255 27.9399 6.04955 28.0504 6.25066 28.103C6.44648 28.1504 6.84868 28.2136 7.14506 28.2346C7.51553 28.2662 7.85427 28.2662 8.21416 28.2346C8.50525 28.2136 8.94979 28.1504 9.20382 28.103C9.45786 28.0557 9.88657 27.9504 10.1565 27.8714C10.4317 27.7978 10.8657 27.6451 11.125 27.5451C11.3844 27.4398 11.7283 27.2872 11.8871 27.2082C12.0512 27.124 12.3581 26.9503 12.5751 26.8187L12.9668 26.5818V20.9444C12.4269 20.9496 11.3102 21.0023 10.1353 21.0549C8.96039 21.1128 7.74842 21.1918 7.44146 21.2286ZM65.9232 8.64304C66.4366 8.63778 67.0505 8.65883 67.2939 8.68515C67.5321 8.71147 67.9714 8.78516 68.2677 8.84306C68.5641 8.90623 69.0034 9.02729 69.2363 9.10625C69.4691 9.19047 69.8132 9.32206 69.9984 9.40628C70.1836 9.4905 70.48 9.64841 70.6494 9.75369C70.824 9.85896 71.1257 10.0695 71.3268 10.2274C71.5226 10.3801 71.819 10.6433 71.9778 10.8117C72.1419 10.9801 72.3641 11.2381 72.4806 11.3907C72.5917 11.5381 72.7716 11.796 72.8775 11.9697C72.9833 12.1434 73.1686 12.4856 73.285 12.733C73.4015 12.9751 73.5602 13.3699 73.6343 13.6015C73.7137 13.8383 73.8196 14.1805 73.8672 14.3647C73.9148 14.5489 73.9889 14.9332 74.0419 15.2122C74.0895 15.4964 74.153 15.9702 74.1847 16.2649C74.2218 16.6229 74.2324 17.3703 74.2165 18.5231C74.1953 20.018 74.1847 20.2706 74.1159 20.4285C74.0736 20.5233 73.9942 20.6549 73.9413 20.7128C73.8884 20.7707 73.7878 20.8444 73.719 20.8812C73.6131 20.9338 72.6129 20.9444 60.943 20.9391L60.9747 21.9603C60.9906 22.5182 61.0383 23.1867 61.0753 23.4499C61.1176 23.7078 61.197 24.1079 61.2552 24.3447C61.3134 24.5763 61.4299 24.9501 61.5093 25.1712C61.5939 25.3922 61.7633 25.7449 61.8904 25.9502C62.0121 26.1555 62.2344 26.4555 62.3878 26.6187C62.536 26.7819 62.7689 26.9977 62.9012 27.1029C63.0388 27.2029 63.2981 27.3714 63.4834 27.4714C63.6686 27.5661 64.0338 27.7188 64.2931 27.8083C64.5525 27.8925 65.0076 28.0083 65.304 28.0609C65.775 28.1504 66.0026 28.1609 67.0558 28.1609C68.0825 28.1662 68.363 28.1504 68.8764 28.0715C69.2098 28.0188 69.8396 27.8925 70.2683 27.7925C70.7023 27.6925 71.3691 27.5504 71.7555 27.4714C72.3694 27.3503 72.4753 27.3398 72.6499 27.3872C72.7928 27.424 72.9199 27.503 73.0628 27.6451C73.2109 27.7978 73.2903 27.9241 73.3379 28.103C73.3803 28.2346 73.4755 28.5978 73.5549 28.9084C73.6343 29.2137 73.7084 29.5874 73.719 29.7348C73.7349 29.9243 73.7243 30.0454 73.6767 30.1401C73.6396 30.2138 73.539 30.3401 73.4544 30.4244C73.3697 30.5086 73.1633 30.6454 72.9886 30.7244C72.814 30.8033 72.4541 30.9507 72.1789 31.0507C71.909 31.156 71.4644 31.2981 71.1892 31.3666C70.9193 31.4402 70.4641 31.5403 70.1783 31.5929C69.8978 31.6403 69.4109 31.714 69.104 31.7508C68.7917 31.7877 68.2043 31.835 67.7967 31.8561C67.3892 31.8771 66.7012 31.8771 66.2725 31.8561C65.8385 31.8403 65.2405 31.7877 64.9441 31.7508C64.6477 31.7087 64.1714 31.6245 63.8856 31.5613C63.6051 31.4981 63.1605 31.3771 62.9012 31.2929C62.6419 31.2034 62.2449 31.056 62.0227 30.956C61.8004 30.8612 61.4352 30.677 61.2129 30.5507C60.9906 30.4244 60.6466 30.198 60.4508 30.0506C60.2497 29.9085 59.9004 29.6032 59.6675 29.3821C59.4399 29.1558 59.1224 28.8136 58.9689 28.6136C58.8101 28.4189 58.5772 28.0873 58.4449 27.8767C58.3179 27.6662 58.0903 27.2451 57.9421 26.9398C57.7939 26.6292 57.577 26.087 57.4605 25.7291C57.3441 25.3712 57.1959 24.8501 57.1324 24.5658C57.0689 24.2816 56.9736 23.771 56.926 23.4236C56.8784 23.0814 56.8096 22.4972 56.7831 22.1287C56.7514 21.6971 56.7408 20.9549 56.7566 20.0706C56.7672 19.2337 56.8096 18.4388 56.8519 18.0756C56.889 17.744 56.9736 17.1913 57.0371 16.8492C57.1006 16.5018 57.2171 15.9596 57.3018 15.6385C57.3865 15.3175 57.5293 14.8437 57.6193 14.5858C57.7093 14.3279 57.9104 13.8541 58.0639 13.5383C58.2174 13.2172 58.445 12.7856 58.572 12.575C58.699 12.3645 58.916 12.0434 59.0536 11.8592C59.1965 11.6749 59.4346 11.3802 59.5881 11.2117C59.7469 11.038 60.0644 10.738 60.2973 10.5432C60.5302 10.3432 60.8795 10.08 61.0806 9.95371C61.2764 9.82212 61.6733 9.6063 61.9538 9.46945C62.2396 9.33259 62.6842 9.15362 62.9435 9.0694C63.2029 8.98518 63.6263 8.87465 63.8856 8.82201C64.1449 8.76937 64.4995 8.70621 64.6742 8.68515C64.8488 8.6641 65.4098 8.64304 65.9232 8.64304ZM64.272 11.9013C64.0973 11.9539 63.8221 12.0697 63.6633 12.1487C63.5045 12.2276 63.2293 12.4066 63.0547 12.5382C62.8853 12.6751 62.6472 12.8961 62.536 13.0277C62.4249 13.1593 62.2608 13.3699 62.1814 13.4909C62.0967 13.612 61.9433 13.8857 61.8374 14.0963C61.7368 14.3068 61.5781 14.6963 61.4934 14.97C61.4034 15.2385 61.2923 15.6701 61.2447 15.928C61.1917 16.186 61.1282 16.5597 61.1017 16.7597C61.0753 16.9545 61.0383 17.3703 61.0224 17.6861L60.9906 18.2599L70.3159 18.2546C70.3583 18.0651 70.3636 17.4966 70.3477 16.8703C70.3318 16.0912 70.3001 15.5964 70.2472 15.3017C70.2101 15.0701 70.099 14.6595 70.009 14.3858C69.919 14.1173 69.7496 13.7331 69.6385 13.5383C69.5062 13.2962 69.3157 13.054 69.0564 12.7961C68.8076 12.5487 68.5589 12.354 68.3366 12.2276C68.1513 12.1276 67.8497 11.9908 67.6644 11.9276C67.4792 11.8697 67.1457 11.7855 66.9235 11.7486C66.6694 11.7065 66.2725 11.6802 65.865 11.6802C65.5051 11.6855 65.0711 11.7118 64.9017 11.7434C64.7271 11.775 64.4413 11.8434 64.272 11.9013ZM88.739 9.46418C89.1518 9.46945 89.6017 9.50103 89.7552 9.53261C89.9034 9.55893 90.078 9.61157 90.1468 9.64841C90.2156 9.68 90.3108 9.79053 90.3585 9.89055C90.4061 9.98529 90.4485 10.1379 90.4485 10.2274C90.4485 10.3116 90.3691 10.8801 90.2739 11.4907C90.1574 12.2382 90.078 12.6435 90.0198 12.7435C89.9669 12.833 89.8557 12.9277 89.7287 12.9856C89.5276 13.0751 89.5276 13.0751 88.9455 12.9961C88.5327 12.9435 88.2204 12.9277 87.8869 12.9435C87.617 12.9593 87.273 13.0119 87.0772 13.0646C86.892 13.1172 86.5902 13.233 86.405 13.3172C86.2198 13.4015 85.9658 13.5383 85.844 13.612C85.717 13.691 85.4577 13.8805 85.2566 14.0331C85.0608 14.1857 84.7855 14.4279 84.6479 14.57C84.505 14.7174 84.2986 14.949 83.9758 15.349V22.8656C83.9758 28.4136 83.9652 30.4454 83.9228 30.6191C83.8911 30.7823 83.8224 30.9086 83.7059 31.0349C83.6001 31.1455 83.4677 31.235 83.346 31.2718C83.1978 31.3139 82.8114 31.3244 80.4881 31.3034L80.3134 31.1876C80.2128 31.1244 80.0964 30.9928 80.0435 30.8928C79.9535 30.7191 79.9535 30.6191 79.9429 20.697C79.9376 15.1806 79.9377 10.6064 79.9535 10.5275C79.9694 10.4432 80.0488 10.3011 80.1441 10.2011C80.2393 10.1011 80.3875 9.99582 80.4722 9.96424C80.578 9.92739 81.0226 9.9116 81.8641 9.9116C82.9332 9.9116 83.129 9.92213 83.3143 9.99056C83.4466 10.0379 83.5683 10.1222 83.6371 10.2116C83.6953 10.2959 83.7641 10.438 83.7905 10.538C83.8223 10.638 83.8435 10.9012 83.8435 11.1328C83.8435 11.3591 83.854 11.5749 83.8646 11.6118C83.8805 11.6592 84.034 11.5381 84.3939 11.2012C84.6691 10.9433 85.0819 10.6064 85.3042 10.459C85.5265 10.3116 85.8493 10.1221 86.0239 10.0327C86.1933 9.94845 86.5374 9.81159 86.7861 9.72737C87.0349 9.64841 87.4054 9.5484 87.6171 9.51156C87.887 9.46418 88.215 9.44839 88.739 9.46418ZM117.281 9.81159C118.583 9.82212 118.663 9.82738 118.853 9.91686C118.964 9.97476 119.118 10.0853 119.192 10.1695C119.266 10.259 120.298 11.8013 121.483 13.5962C122.669 15.3964 123.653 16.865 123.669 16.8597C123.685 16.8545 124.659 15.3964 125.834 13.6278C127.004 11.8539 128.025 10.3222 128.094 10.2274C128.168 10.1327 128.327 10.0011 128.671 9.82212L130.041 9.80633C131.169 9.7958 131.449 9.80633 131.592 9.85896C131.693 9.89581 131.83 9.99056 131.899 10.0642C132 10.1748 132.021 10.2432 132.021 10.4274C132.021 10.5485 131.994 10.7064 131.957 10.7749C131.926 10.8433 130.544 12.9698 128.898 15.5069C127.247 18.0388 125.892 20.1338 125.876 20.1601C125.866 20.1811 127.348 22.4603 129.168 25.2133C130.994 27.9715 132.497 30.2717 132.524 30.3296C132.545 30.3822 132.561 30.5454 132.561 30.6875C132.561 30.8612 132.534 30.977 132.481 31.0507C132.439 31.1139 132.338 31.1876 132.259 31.2192C132.148 31.2665 131.751 31.2771 130.661 31.2771C129.729 31.2771 129.147 31.2613 129.031 31.2297C128.935 31.1981 128.777 31.1297 128.687 31.0718C128.56 30.9928 128.364 30.7349 127.951 30.1033C127.639 29.6295 126.559 27.9715 125.548 26.4239C124.543 24.8711 123.696 23.5973 123.675 23.592C123.659 23.5868 122.59 25.1975 121.309 27.1714C119.959 29.2505 118.901 30.8402 118.79 30.9455C118.689 31.0455 118.509 31.156 118.382 31.2034C118.186 31.2718 117.969 31.2771 116.71 31.2771C115.609 31.2771 115.222 31.2665 115.111 31.2192C115.032 31.1876 114.921 31.1034 114.863 31.0297C114.788 30.9349 114.762 30.8402 114.762 30.6875C114.762 30.5665 114.788 30.4086 114.82 30.3296C114.857 30.2454 116.366 27.9399 118.181 25.1922C119.996 22.4498 121.478 20.1969 121.473 20.1811C121.473 20.1706 120.129 18.1072 118.493 15.5964C116.853 13.0856 115.466 10.938 115.408 10.8275C115.35 10.7169 115.302 10.5538 115.302 10.459C115.302 10.3695 115.328 10.238 115.365 10.1695C115.397 10.1011 115.466 10.0169 115.508 9.98003C115.556 9.94318 115.662 9.88528 115.752 9.8537C115.868 9.81685 116.281 9.80106 117.281 9.81159ZM94.1744 9.89055H95.8521C97.5034 9.89055 97.5298 9.89055 97.7045 9.99056C97.805 10.0432 97.9267 10.1537 97.9743 10.2274C98.0273 10.3064 99.2499 13.7646 100.695 17.9125C102.42 22.8604 103.336 25.4291 103.357 25.3817C103.378 25.3396 104.595 21.9813 106.072 17.923C107.543 13.8594 108.787 10.459 108.824 10.359C108.866 10.259 108.983 10.1221 109.253 9.9116L110.761 9.90107C111.909 9.89055 112.301 9.90107 112.402 9.94318C112.476 9.97476 112.555 10.059 112.587 10.1379C112.624 10.2274 112.629 10.3327 112.603 10.4696C112.587 10.5801 110.623 15.8649 108.247 22.2182C105.871 28.5663 103.823 34.0037 103.695 34.2985C103.574 34.5932 103.373 35.0301 103.251 35.2722C103.129 35.5144 102.912 35.9144 102.759 36.1671C102.611 36.4197 102.362 36.7987 102.208 37.004C102.055 37.2146 101.732 37.5935 101.483 37.8515C101.235 38.1041 100.859 38.4463 100.652 38.6042C100.441 38.7621 100.007 39.02 99.6838 39.1779C99.361 39.3358 98.9376 39.5148 98.7418 39.578C98.546 39.6411 98.1384 39.7411 97.842 39.8043C97.5457 39.8622 97.0376 39.9359 96.72 39.9622C96.3601 39.9938 95.7516 40.0096 95.1482 39.9938C94.5184 39.978 94.0103 39.9412 93.751 39.8938C93.4705 39.8412 93.317 39.7885 93.2429 39.7201C93.1847 39.6675 93.1106 39.5148 93.0683 39.3779C93.0153 39.1885 93.0047 39.0305 93.0312 38.6831C93.047 38.4357 93.0895 38.0462 93.1212 37.8094C93.1583 37.5778 93.2164 37.2935 93.2588 37.183C93.2958 37.0724 93.3858 36.9303 93.4493 36.8619C93.5181 36.7935 93.6346 36.725 93.7086 36.7092C93.7827 36.6987 94.1744 36.7198 94.5819 36.7619C95.0794 36.8145 95.5133 36.8303 95.8891 36.8145C96.1961 36.7987 96.6618 36.7461 96.9212 36.6935C97.1805 36.6408 97.5563 36.5303 97.7521 36.4461C97.9479 36.3566 98.2231 36.225 98.3554 36.146C98.493 36.0671 98.7629 35.8407 98.9641 35.6407C99.1652 35.4459 99.4351 35.1249 99.5674 34.9248C99.6944 34.7301 99.8903 34.3879 99.9961 34.1669C100.102 33.9458 100.478 33.0562 100.832 32.1982C101.182 31.335 101.473 30.5981 101.473 30.5612C101.478 30.5244 99.7738 26.0133 97.6939 20.5391C94.5237 12.2013 93.9098 10.5485 93.915 10.3643C93.915 10.1906 93.9415 10.1274 94.0421 10.0221L94.1744 9.89055Z" clip-rule="evenodd" fill-rule="evenodd"></path>
</svg>
