<svg width="64" height="64" viewBox="0 0 64 64" fill="none" xmlns="http://www.w3.org/2000/svg">
<path d="M54 12H10C8.34315 12 7 13.3431 7 15V49C7 50.6569 8.34315 52 10 52H54C55.6569 52 57 50.6569 57 49V15C57 13.3431 55.6569 12 54 12Z" fill="#3F7DFF"/>
<path d="M10 12H54C54.7956 12 55.559 12.3158 56.1216 12.8784C56.6842 13.441 57 14.2044 57 15V19H7V15C7 14.2044 7.3163 13.441 7.87891 12.8784C8.44152 12.3158 9.20435 12 10 12V12Z" fill="#9E62FF"/>
<path d="M19.6401 16.5596C19.3508 16.5597 19.073 16.4468 18.8657 16.2451C18.6584 16.0434 18.5381 15.7687 18.5302 15.4795C18.5221 15.2043 18.622 14.9369 18.8091 14.7349C18.9961 14.5329 19.2553 14.4124 19.5302 14.3994H19.6001C19.8865 14.3994 20.1612 14.5133 20.3637 14.7158C20.5663 14.9184 20.6802 15.1931 20.6802 15.4795C20.6802 15.7659 20.5663 16.0406 20.3637 16.2432C20.1612 16.4457 19.8865 16.5596 19.6001 16.5596H19.6401Z" fill="white"/>
<path d="M15.2698 16.5596C14.9806 16.5597 14.7027 16.4468 14.4954 16.2451C14.2881 16.0434 14.1678 15.7687 14.16 15.4795C14.1489 15.3416 14.1664 15.203 14.2117 15.0723C14.257 14.9416 14.3287 14.8217 14.4227 14.7202C14.5166 14.6187 14.6308 14.5376 14.7576 14.4824C14.8845 14.4272 15.0216 14.399 15.16 14.3994H15.2298C15.5162 14.3994 15.7909 14.5133 15.9935 14.7158C16.196 14.9184 16.3099 15.1931 16.3099 15.4795C16.3099 15.7659 16.196 16.0406 15.9935 16.2432C15.7909 16.4457 15.5162 16.5596 15.2298 16.5596H15.2698Z" fill="white"/>
<path d="M10.8901 16.5596C10.6008 16.5597 10.323 16.4468 10.1157 16.2451C9.90837 16.0434 9.78807 15.7687 9.78025 15.4795C9.77208 15.2043 9.87202 14.9369 10.0591 14.7349C10.2461 14.5329 10.5053 14.4124 10.7802 14.3994H10.8501C11.1365 14.3994 11.4112 14.5133 11.6137 14.7158C11.8163 14.9184 11.9302 15.1931 11.9302 15.4795C11.9302 15.7659 11.8163 16.0406 11.6137 16.2432C11.4112 16.4457 11.1365 16.5596 10.8501 16.5596H10.8901Z" fill="white"/>
<path d="M7 18.9502H57" stroke="#0B0B0B" stroke-linecap="round" stroke-linejoin="round"/>
<path d="M23.1499 42.1099C23.1499 40.5138 21.8564 39.2197 20.2603 39.2197C18.6642 39.2197 17.3701 40.5138 17.3701 42.1099V42.8501C17.3701 44.4462 18.6642 45.7397 20.2603 45.7397C21.8564 45.7397 23.1499 44.4462 23.1499 42.8501V42.1099Z" fill="#BDEA09"/>
<path d="M30.9702 33.6001C30.9702 32.004 29.6762 30.71 28.0801 30.71C26.484 30.71 25.1899 32.004 25.1899 33.6001V42.8599C25.1899 44.456 26.484 45.75 28.0801 45.75C29.6762 45.75 30.9702 44.456 30.9702 42.8599V33.6001Z" fill="#BDEA09"/>
<path d="M38.8003 38.1001C38.8003 36.504 37.5063 35.21 35.9102 35.21C34.3141 35.21 33.02 36.504 33.02 38.1001V42.8501C33.02 44.4462 34.3141 45.7397 35.9102 45.7397C37.5063 45.7397 38.8003 44.4462 38.8003 42.8501V38.1001Z" fill="#BDEA09"/>
<path d="M46.6201 28.3403C46.6201 26.7442 45.3261 25.4502 43.73 25.4502C42.1339 25.4502 40.8398 26.7442 40.8398 28.3403V42.8604C40.8398 44.4565 42.1339 45.7505 43.73 45.7505C45.3261 45.7505 46.6201 44.4565 46.6201 42.8604V28.3403Z" fill="#BDEA09"/>
</svg>
