<svg width="64" height="64" viewBox="0 0 64 64" fill="none" xmlns="http://www.w3.org/2000/svg">
<path d="M47.1602 17.7397V12.1997C47.1602 10.8223 46.6137 9.50127 45.6406 8.52637C44.6676 7.55146 43.3471 7.00265 41.9697 7V7C40.5906 7 39.2682 7.54776 38.293 8.52295C37.3178 9.49814 36.7705 10.8206 36.7705 12.1997V17.7397" stroke="#0B0B0B" stroke-miterlimit="10" stroke-linecap="round"/>
<path d="M48.8896 17.7422H35.04C33.5931 17.7422 32.4199 18.9148 32.4199 20.3618V34.2119C32.4199 35.6589 33.5931 36.832 35.04 36.832H48.8896C50.3366 36.832 51.5098 35.6589 51.5098 34.2119V20.3618C51.5098 18.9148 50.3366 17.7422 48.8896 17.7422Z" fill="#00C5A1"/>
<path d="M41.96 27.3208C43.1142 27.3208 44.0498 26.3847 44.0498 25.2305C44.0498 24.0762 43.1142 23.1406 41.96 23.1406C40.8057 23.1406 39.8701 24.0762 39.8701 25.2305C39.8701 26.3847 40.8057 27.3208 41.96 27.3208Z" stroke="#0B0B0B" stroke-miterlimit="10" stroke-linecap="round"/>
<path d="M41.96 27.3203V31.4199" stroke="#0B0B0B" stroke-miterlimit="10" stroke-linecap="round"/>
<path d="M57 44.8413C56.4822 43.4237 55.4417 42.258 54.0918 41.583C52.7419 40.908 51.185 40.7751 49.7402 41.2114L37.4102 44.9414L27.6699 40.3013H33.4502C35.2457 40.3013 36.9677 39.588 38.2373 38.3184C39.5069 37.0487 40.2197 35.3268 40.2197 33.5312H19.4502C19.0007 33.5315 18.5551 33.6196 18.1396 33.791L7 38.4712V57.0312L16.7598 49.3213L36.0303 52.0112C36.5793 52.0904 37.1393 52.0321 37.6602 51.8413L57 44.8413Z" fill="#3F7DFF"/>
</svg>
