<svg xmlns="http://www.w3.org/2000/svg" fill="none" viewBox="0 0 166 40" height="40" width="166">
<path fill="#0B0B0B" d="M25.2522 2.44892C25.2522 1.0942 24.2402 0 22.9568 0C21.6734 0 20.6368 1.0942 20.6368 2.44892C20.6368 3.80365 21.6734 4.8718 22.9568 4.8718C24.2402 4.8718 25.2522 3.80365 25.2522 2.44892ZM21.0564 29.2308V13.3128H24.8573V29.2047H21.0564V29.2308ZM6.79062 28.3181C6.79062 29.6741 7.80255 30.7692 9.08597 30.7692C10.3694 30.7692 11.406 29.6741 11.406 28.3181C11.406 26.9625 10.3694 25.8931 9.08597 25.8931C7.77787 25.9452 6.79062 26.9883 6.79062 28.3181ZM7.2102 17.4446H11.0111V1.53846H7.2102V17.4446ZM3.19628 7.74084C1.78035 7.74084 0.636719 8.73679 0.636719 9.99995C0.636719 11.2631 1.78035 12.2834 3.19628 12.2834C4.61221 12.2834 5.72862 11.2631 5.72862 9.99995C5.72862 8.73679 4.61221 7.74084 3.19628 7.74084ZM31.1881 11.8947H14.5509V8.1538H31.1609V11.8947H31.1881ZM30.3644 23.0769C31.7916 23.0769 32.9445 22.065 32.9445 20.7816C32.9445 19.4981 31.7916 18.4615 30.3644 18.4615C28.9371 18.4615 27.8117 19.4981 27.8117 20.7816C27.8391 22.0897 28.9645 23.0769 30.3644 23.0769ZM2.17523 22.7067H18.9185V18.9058H2.17523V22.7067ZM150.558 13.6223H155.966V9.77664H150.531V3.54776H145.813V22.3157C145.813 28.0029 148.406 30.6299 154.117 30.6299H156.021V26.703C152.159 26.703 150.613 25.5926 150.613 21.7196L150.558 13.6223ZM114.056 13.9744C113.78 13.839 112.317 13.189 110.386 13.189C106.827 13.189 104.178 15.7618 104.178 20.2033C104.178 24.9155 107.213 27.136 110.386 27.136C112.262 27.136 113.918 26.4863 114.056 26.3509V13.9744ZM118.829 11.2662V29.0591C118.829 35.4505 115.877 40 108.234 40C105.254 40 103.074 39.4315 102.688 39.3503V35.5046C103.185 35.6401 105.392 36.2085 107.627 36.2085C112.373 36.2085 114.056 33.8797 114.056 30.684V30.3049C113.725 30.4403 112.262 31.1173 109.945 31.1173C103.102 31.1173 99.3497 26.0801 99.3497 20.1491C99.3497 13.8931 103.323 9.15375 110.497 9.15375C114.718 9.18083 118.277 10.9953 118.829 11.2662ZM87.1824 24.6986C87.1824 21.2053 84.6165 19.6616 82.0505 18.5783C81.6091 18.3888 80.2019 17.8471 80.0088 17.7388C78.2154 17.0076 76.9462 16.4659 76.9462 15.0577C76.9462 14.0014 77.8015 12.9994 80.3399 12.9994C82.7952 12.9994 84.92 14.2452 85.1404 14.3535L86.9065 11.1037C86.7685 11.0224 84.4233 9.235 80.064 9.235C75.4011 9.235 72.2006 11.6995 72.2006 15.4639C72.2006 18.8221 74.6286 20.3116 76.9186 21.2324C77.1945 21.3407 79.2363 22.1802 79.7053 22.3698C81.4987 23.0737 82.4092 23.8323 82.4092 24.9968C82.4092 26.2696 81.2228 27.4342 78.6293 27.4342C75.9254 27.4342 73.6077 25.9447 73.2491 25.728L71.4557 28.9779C71.704 29.1945 74.6559 31.1983 79.2084 31.1983C83.7887 31.1173 87.1824 28.7609 87.1824 24.6986ZM141.481 18.0367C141.481 12.5932 137.591 9.15375 132.624 9.15375C129.727 9.15375 128.403 9.9933 128.293 10.0475V0H123.492V30.5757H128.293V13.9473C128.431 13.866 129.865 13.1619 131.714 13.1619C134.914 13.1619 136.735 14.8681 136.735 17.9825V30.5757H141.536L141.481 18.0367ZM68.4207 18.0367C68.4207 12.2953 64.6959 9.18083 58.5432 9.18083C54.2666 9.18083 50.873 11.1037 50.4315 11.2662V30.5757H55.2323V13.9473C55.7289 13.7306 57.1912 13.1619 58.7912 13.1619C62.0472 13.1619 63.6475 14.9222 63.6475 17.9825V30.5757H68.448V18.0096H68.4207V18.0367ZM95.5697 30.6028V9.74956H90.7692V30.5486H95.5697V30.6028ZM95.9836 3.52067C95.9836 2.00408 94.7699 0.758299 93.1972 0.758299C91.6242 0.758299 90.3827 2.00408 90.3827 3.52067C90.3827 5.03727 91.6521 6.25597 93.1972 6.25597C94.742 6.25597 95.9836 5.03727 95.9836 3.52067ZM40.6368 30.6028H45.5755V1.08328H40.6368V30.6028ZM164.124 28C164.124 28.2019 164.042 28.2885 163.857 28.2885H163.529V27.6538H163.857C164.021 27.6827 164.124 27.7981 164.124 28ZM164.124 28.6058C164.308 28.4904 164.452 28.3173 164.452 27.9712C164.452 27.7692 164.391 27.625 164.308 27.5096C164.206 27.3654 164.042 27.2788 163.857 27.2788H163.18V29.3846H163.509V28.6923H163.755L164.083 29.3846H164.452L164.124 28.6058ZM165.047 28.4038C165.047 29.3846 164.514 30.1635 163.796 30.1635C163.098 30.1635 162.565 29.3846 162.565 28.4038C162.565 27.4231 163.098 26.6442 163.816 26.6442C164.493 26.6154 165.047 27.4231 165.047 28.4038ZM163.775 26.3269C162.934 26.3269 162.278 27.2788 162.278 28.4038C162.278 29.5288 162.914 30.4808 163.755 30.4808C164.596 30.4808 165.252 29.5288 165.252 28.4038C165.273 27.25 164.616 26.3269 163.775 26.3269Z" clip-rule="evenodd" fill-rule="evenodd"></path>
</svg>
