<svg width="64" height="64" viewBox="0 0 64 64" fill="none" xmlns="http://www.w3.org/2000/svg">
<path d="M33.7598 37.7397L52.7202 45.0898V16.5L33.7598 23.8398V37.7397Z" fill="#00C5A1"/>
<path d="M57 16.1396C57 14.9578 56.0418 14 54.8599 14C53.678 14 52.7202 14.9578 52.7202 16.1396V45.3599C52.7202 46.5418 53.678 47.5 54.8599 47.5C56.0418 47.5 57 46.5418 57 45.3599V16.1396Z" fill="#3F7DFF"/>
<path d="M33.7598 37.7095H17.0898C16.8088 37.7095 16.5306 37.654 16.271 37.5464C16.0114 37.4389 15.7754 37.2813 15.5767 37.0825C15.3779 36.8838 15.2203 36.6478 15.1128 36.3882C15.0052 36.1286 14.9502 35.8504 14.9502 35.5694V25.9395C14.9502 25.6589 15.0056 25.3812 15.1133 25.1221C15.2209 24.863 15.3783 24.6276 15.5771 24.4297C15.776 24.2318 16.0124 24.0752 16.272 23.9688C16.5316 23.8623 16.8093 23.8083 17.0898 23.8096H33.7598" fill="#00C5A1"/>
<path d="M14.9502 35.3892H9.14014C8.57257 35.3892 8.02828 35.1635 7.62695 34.7622C7.22563 34.3609 7 33.8166 7 33.249V28.3389C7 27.7713 7.22563 27.227 7.62695 26.8257C8.02828 26.4244 8.57257 26.1992 9.14014 26.1992H14.9502" fill="#3F7DFF"/>
<path d="M22.23 37.709C22.3588 41.5227 23.4343 45.2446 25.3599 48.5391C25.4821 48.7549 25.6597 48.9343 25.874 49.0591C26.0884 49.1838 26.3321 49.2494 26.5801 49.249H28.23C28.4576 49.25 28.6818 49.1946 28.8828 49.0879C29.0838 48.9812 29.2556 48.8263 29.3823 48.6372C29.509 48.4481 29.5871 48.2309 29.6094 48.0044C29.6317 47.7779 29.5972 47.549 29.5098 47.3389C28.2215 44.2859 27.5099 41.0211 27.4102 37.709" fill="#3F7DFF"/>
<path d="M33.3999 23.8398V37.7397" stroke="#0B0B0B" stroke-linejoin="round"/>
</svg>
