<svg xmlns="http://www.w3.org/2000/svg" fill="none" viewBox="0 0 143 40" height="40" width="143">
<path fill="#0B0B0B" d="M0.425781 40C0.425781 26.6038 0.425781 13.3962 0.425781 0C8.16163 4.43396 15.8031 8.86792 23.4446 13.3021C31.0862 8.86792 38.6333 4.5283 46.3692 0C46.3692 13.3962 46.3692 26.604 46.3692 39.9057C42.5012 37.7358 38.7277 35.566 34.9541 33.3019C34.9541 28.8679 34.9541 24.5283 34.9541 20C30.9918 22.2642 27.2182 24.4342 23.4446 26.6981C19.6711 24.5283 15.9918 22.3585 12.2182 20.2832C12.1239 20.3774 12.0296 20.3774 12.0296 20.3774C12.0296 20.3774 11.9352 20.3774 11.9352 20.4717C11.9352 20.566 11.8409 20.6604 11.8409 20.6604C11.8409 24.9057 11.8409 29.0566 11.8409 33.3964C8.16163 35.566 4.38805 37.7359 0.425781 40ZM57.9729 9.90566C59.5765 9.90566 61.0859 9.90566 62.6901 9.90566C64.3883 12.6415 66.0864 15.3774 67.8786 18.3021C69.6711 15.3774 71.3692 12.6415 73.1614 9.90566C74.7656 9.90566 76.275 9.90566 77.8786 9.90566C77.8786 16.6038 77.8786 23.2075 77.8786 29.9057C76.4637 29.9057 75.143 29.9057 73.6335 29.9057C73.6335 25.7547 73.6335 21.6038 73.6335 17.4528C73.539 17.4528 73.4449 17.3585 73.3503 17.3585C72.5958 18.2075 72.1241 19.2453 71.4633 20.0943C70.8029 21.0377 70.1425 22.0755 69.4822 23.1132C68.4444 23.1132 67.3126 23.1132 66.1805 23.1132C64.9539 21.3208 63.7279 19.434 62.5012 17.5472C62.4071 17.5472 62.3126 17.6415 62.3126 17.6415C62.3126 21.6981 62.3126 25.7547 62.3126 29.9057C60.8031 29.9057 59.3883 29.9057 57.9729 29.9057C57.9729 23.3019 57.9729 16.6981 57.9729 9.90566ZM85.4258 19.6226C85.4258 21.9811 86.1807 23.7736 87.7843 25C90.3314 26.9811 94.1994 26.5094 96.0864 23.9623C98.1614 21.2264 97.6899 16.8868 94.9539 14.9057C92.9729 13.4906 90.8977 13.2075 88.6333 14.2453C86.5581 15.4717 85.5203 17.4528 85.4258 19.6226ZM80.8034 20C80.8034 14.0566 85.4258 9.62264 91.5581 9.62264C97.5013 9.62264 102.03 14.1509 102.03 20C102.03 25.9434 97.4071 30.3774 91.2746 30.3774C85.3316 30.3774 80.8034 25.8491 80.8034 20ZM109.483 25.9434C111.086 25.9434 112.596 26.0377 114.105 25.9434C114.86 25.8491 115.709 25.4717 116.369 25.0943C118.539 23.6792 119.105 21.6038 118.822 19.1509C118.539 16.9811 117.407 15.3774 115.426 14.5283C113.539 13.7736 111.558 13.9623 109.577 13.9623C109.483 17.8302 109.483 21.8868 109.483 25.9434ZM105.048 30C105.048 23.3962 105.048 16.6038 105.048 10C105.237 9.90566 105.332 9.81132 105.426 9.81132C108.539 9.81132 111.652 9.71698 114.765 10C118.917 10.3774 122.218 13.4906 123.162 17.3585C124.199 21.6038 122.596 25.8491 119.105 28.1132C117.313 29.3396 115.237 29.8113 113.162 29.9057C110.709 29.9057 108.162 29.9057 105.709 29.9057C105.426 30 105.332 30.0943 105.048 30ZM140.614 17.9245C140.614 19.3396 140.614 20.566 140.614 21.8868C137.501 21.8868 134.388 21.8868 131.275 21.8868C131.275 23.3019 131.275 24.6229 131.275 26.0377C134.86 26.0377 138.445 26.0377 142.03 26.0377C142.03 27.3585 142.03 28.5851 142.03 29.9057C137.03 29.9057 132.03 29.9057 126.935 29.9057C126.935 23.3019 126.935 16.6981 126.935 10C131.935 10 136.841 10 141.841 10C141.841 11.321 141.841 12.5472 141.841 13.8679C138.351 13.8679 134.86 13.8679 131.275 13.8679C131.275 15.2832 131.275 16.5094 131.275 17.9245C134.388 17.9245 137.407 17.9245 140.614 17.9245Z"></path>
</svg>
