<svg xmlns="http://www.w3.org/2000/svg" fill="none" viewBox="0 0 211 39" height="39" width="211">
<path fill="#0B0B0B" d="M29.304 18.7034H23.7324V12.3334H21.5424V18.7034H15.9707V20.965H21.5424V27.3334H23.7324V20.965H29.304V18.7034Z" clip-rule="evenodd" fill-rule="evenodd"></path>
<path fill="#0B0B0B" d="M17.638 28.1167H12.0314V22.3334H9.90969V28.1167H4.30469V29.8817H9.90969V35.6667H12.0314V29.8817H17.638V28.1167Z" clip-rule="evenodd" fill-rule="evenodd"></path>
<path fill="#0B0B0B" d="M40.9701 9.8117H35.365V4H33.2417V9.8117H27.6367V11.575H33.2417V17.3333H35.365V11.575H40.9701V9.8117Z" clip-rule="evenodd" fill-rule="evenodd"></path>
<path fill="#0B0B0B" d="M21.0017 30.6666V34.1583H17.6367V35.5066H21.0017V39H22.6051V35.5066H25.9701V34.1583H22.6051V30.6666H21.0017Z" clip-rule="evenodd" fill-rule="evenodd"></path>
<path fill="#0B0B0B" d="M17.638 9.8117H11.9664V4H9.97635V9.8117H4.30469V11.5233H9.97635V17.3333H11.9664V11.5233H17.638V9.8117Z" clip-rule="evenodd" fill-rule="evenodd"></path>
<path fill="#0B0B0B" d="M42.638 19.1583H39.273V15.6666H37.6697V19.1583H34.3047V20.5066H37.6697V24H39.273V20.5066H42.638V19.1583Z" clip-rule="evenodd" fill-rule="evenodd"></path>
<path fill="#0B0B0B" d="M40.9701 28.1167H35.365V22.3334H33.2417V28.1167H27.6367V29.8817H33.2417V35.6667H35.365V29.8817H40.9701V28.1167Z" clip-rule="evenodd" fill-rule="evenodd"></path>
<path fill="#0B0B0B" d="M21.1684 0.666626V4.28663H17.6367V5.38163H21.1684V8.99996H22.4384V5.38163H25.9701V4.28663H22.4384V0.666626H21.1684Z" clip-rule="evenodd" fill-rule="evenodd"></path>
<path fill="#0B0B0B" d="M4.51404 15.6666V19.2566H0.970703V20.41L4.51404 20.39V24H5.7607V20.3833L9.30404 20.3633V19.2566H5.7607V15.6666H4.51404Z" clip-rule="evenodd" fill-rule="evenodd"></path>
<path fill="#0B0B0B" d="M113.325 26.3974C116.159 26.3974 117.784 24.8821 117.784 22.183C117.784 19.5287 116.149 17.9361 113.601 17.9361C112.491 17.9361 111.44 18.294 110.67 18.622V25.9185C111.607 26.2391 112.482 26.3974 113.325 26.3974ZM110.67 16.0099C112.099 15.4856 113.368 15.3307 114.18 15.3307C118.232 15.3307 120.97 17.9877 120.97 22.1538C120.97 26.4748 118.093 29 113.02 29C111.261 29 109.535 28.6828 107.723 28.1096L107.637 9H110.67V16.0099Z" clip-rule="evenodd" fill-rule="evenodd"></path>
<path fill="#0B0B0B" d="M134.305 30.6667H137.638V7.33337H134.305V30.6667Z" clip-rule="evenodd" fill-rule="evenodd"></path>
<path fill="#0B0B0B" d="M155.948 27.2749C151.398 26.8691 149.181 23.9273 149.309 20.4395C149.446 16.673 152.097 14 156.139 14C160.379 14 162.835 16.8851 162.624 21.141H152.418C152.662 23.4985 154.201 24.615 156.305 24.7632C158.056 24.8884 160.529 24.5235 161.869 23.7501V26.3428C160.104 27.1326 158.266 27.4817 155.948 27.2749ZM152.602 19.1418H159.385C159.308 17.4819 158.338 16.6203 156.611 16.5182C154.872 16.4155 153.186 17.4437 152.602 19.1418ZM205.137 25.2586C206.921 25.2586 208.125 24.351 208.125 22.3185V14H210.97V22.6685C210.97 25.5657 208.716 27.3333 205.135 27.3333C201.557 27.3333 199.303 25.5657 199.303 22.6685V14H202.146V22.3185C202.146 24.351 203.354 25.2586 205.137 25.2586ZM90.2826 24.8057C90.9735 24.7965 91.8122 24.7503 92.8802 24.5063L92.937 17.4759C91.9651 16.8724 91.0281 16.5888 90.0074 16.5888C87.4578 16.5888 85.8241 18.1355 85.8241 20.7131C85.8241 23.3342 87.4491 24.842 90.2826 24.8057ZM90.5876 27.3333C85.5147 27.3477 82.6367 24.8809 82.6367 20.6847C82.6367 16.6389 85.3771 14.0587 89.4264 14.0587C90.7944 14.0587 91.9243 14.3331 92.937 14.9274V14H95.9701L95.8849 26.4685C94.6086 26.9711 92.5126 27.3273 90.5876 27.3333ZM181.95 24.8057C182.548 24.8044 183.477 24.7503 184.548 24.5063L184.604 17.4759C183.632 16.8724 182.693 16.5888 181.674 16.5888C179.124 16.5888 177.491 18.1355 177.491 20.7131C177.491 23.3342 179.114 24.811 181.95 24.8057ZM182.254 27.3333C177.18 27.3477 174.303 24.8809 174.303 20.6847C174.303 16.6389 177.042 14.0587 181.092 14.0587C182.459 14.0587 183.59 14.3331 184.604 14.9274V14H187.637L187.549 26.4685C186.275 26.9711 184.179 27.3273 182.254 27.3333Z" clip-rule="evenodd" fill-rule="evenodd"></path>
<path fill="#0B0B0B" d="M60.3717 9H63.2351V17.2883H70.9701V20.0117H63.2351V29H60.3717V20.0117H52.6367V17.2883H60.3717V9Z" clip-rule="evenodd" fill-rule="evenodd"></path>
</svg>
